<svg width="402" height="76" viewBox="0 0 402 76" fill="none" xmlns="http://www.w3.org/2000/svg">
<g clip-path="url(#clip0_813_2)">
<rect width="75" height="75" rx="37.5" fill="#090B0E"/>
<path d="M43.7924 32.2079C48.6936 37.1141 48.6263 44.9799 43.822 49.8109C43.8129 49.8208 43.8023 49.8314 43.7924 49.8413L38.2799 55.3538C33.4179 60.2157 25.5078 60.2151 20.6465 55.3538C15.7845 50.4926 15.7845 42.5815 20.6465 37.7204L23.6903 34.6765C24.4975 33.8693 25.8876 34.4058 25.9293 35.5465C25.9825 37.0003 26.2432 38.4609 26.7242 39.8713C26.8871 40.3489 26.7707 40.8772 26.4139 41.234L25.3403 42.3075C23.0413 44.6065 22.9692 48.3499 25.2456 50.6714C27.5444 53.0158 31.3229 53.0297 33.6394 50.7133L39.1519 45.2016C41.4645 42.8891 41.4548 39.1512 39.1519 36.8484C38.8483 36.5453 38.5425 36.3099 38.3036 36.1454C38.1347 36.0294 37.9951 35.8755 37.8962 35.6959C37.7972 35.5164 37.7416 35.3162 37.7338 35.1114C37.7013 34.2445 38.0084 33.3513 38.6934 32.6663L40.4205 30.9392C40.8734 30.4863 41.5838 30.4307 42.109 30.7972C42.7104 31.2171 43.2737 31.6892 43.7924 32.2079ZM55.3535 20.6462C50.4923 15.7849 42.5821 15.7843 37.7201 20.6462L32.2076 26.1587C32.1977 26.1686 32.1871 26.1792 32.178 26.1891C27.3738 31.0201 27.3064 38.8859 32.2076 43.7921C32.7262 44.3108 33.2895 44.7828 33.8909 45.2027C34.4161 45.5693 35.1267 45.5136 35.5795 45.0607L37.3066 43.3336C37.9915 42.6486 38.2986 41.7554 38.2662 40.8886C38.2583 40.6837 38.2027 40.4835 38.1037 40.304C38.0048 40.1245 37.8653 39.9705 37.6963 39.8545C37.4574 39.69 37.1516 39.4546 36.848 39.1516C34.5451 36.8487 34.5355 33.1109 36.848 30.7983L42.3605 25.2867C44.677 22.9702 48.4554 22.9841 50.7543 25.3285C53.0307 27.65 52.9587 31.3934 50.6596 33.6924L49.5861 34.7659C49.2292 35.1228 49.1128 35.651 49.2757 36.1286C49.7568 37.5391 50.0175 38.9996 50.0706 40.4534C50.1124 41.5941 51.5024 42.1306 52.3096 41.3234L55.3534 38.2796C60.2155 33.4185 60.2155 25.5074 55.3535 20.6462Z" fill="#0F9D58"/>
<path d="M105.295 25.6592H113.579V58.8574C113.579 61.9889 112.881 64.6444 111.484 66.8237C110.109 69.0243 108.184 70.6852 105.708 71.8066C103.232 72.9492 100.355 73.5205 97.0752 73.5205C95.6364 73.5205 94.113 73.3301 92.5049 72.9492C90.918 72.5684 89.3945 71.9759 87.9346 71.1719C86.4958 70.3678 85.2897 69.3522 84.3164 68.125L88.3472 62.7295C89.4051 63.9567 90.6323 64.9089 92.0288 65.5859C93.4253 66.2842 94.9699 66.6333 96.6626 66.6333C98.313 66.6333 99.7095 66.3265 100.852 65.7129C101.995 65.1204 102.873 64.2424 103.486 63.0786C104.1 61.936 104.407 60.5501 104.407 58.9209V33.5938L105.295 25.6592ZM82.1899 43.2422V42.5757C82.1899 39.952 82.5073 37.5716 83.1421 35.4346C83.798 33.2764 84.7184 31.425 85.9033 29.8804C87.1094 28.3358 88.5693 27.1403 90.2832 26.2939C91.9971 25.4476 93.9331 25.0244 96.0913 25.0244C98.3765 25.0244 100.291 25.4476 101.836 26.2939C103.381 27.1403 104.65 28.3464 105.645 29.9121C106.639 31.4567 107.411 33.2869 107.961 35.4028C108.533 37.4976 108.977 39.7933 109.294 42.29V43.75C108.977 46.141 108.501 48.3626 107.866 50.415C107.231 52.4674 106.396 54.266 105.359 55.8105C104.322 57.334 103.031 58.5189 101.487 59.3652C99.9634 60.2116 98.1437 60.6348 96.0278 60.6348C93.9119 60.6348 91.9971 60.201 90.2832 59.3335C88.5905 58.466 87.1411 57.2493 85.9351 55.6836C84.729 54.1178 83.798 52.277 83.1421 50.1611C82.5073 48.0452 82.1899 45.7389 82.1899 43.2422ZM91.3306 42.5757V43.2422C91.3306 44.6598 91.4681 45.9823 91.7432 47.2095C92.0182 48.4367 92.4414 49.5264 93.0127 50.4785C93.6051 51.4095 94.3351 52.1395 95.2026 52.6685C96.0913 53.1763 97.1387 53.4302 98.3447 53.4302C100.016 53.4302 101.381 53.0811 102.439 52.3828C103.497 51.6634 104.29 50.6795 104.819 49.4312C105.348 48.1828 105.655 46.744 105.74 45.1147V40.957C105.697 39.624 105.518 38.4285 105.2 37.3706C104.883 36.2915 104.438 35.3711 103.867 34.6094C103.296 33.8477 102.555 33.2552 101.646 32.832C100.736 32.4089 99.6566 32.1973 98.4082 32.1973C97.2021 32.1973 96.1548 32.4723 95.2661 33.0225C94.3986 33.5514 93.6686 34.2814 93.0762 35.2124C92.5049 36.1434 92.0711 37.2437 91.7749 38.5132C91.4787 39.7616 91.3306 41.1157 91.3306 42.5757ZM130.337 25.6592V60H121.165V25.6592H130.337ZM120.593 16.709C120.593 15.376 121.059 14.2757 121.99 13.4082C122.921 12.5407 124.169 12.1069 125.735 12.1069C127.279 12.1069 128.517 12.5407 129.448 13.4082C130.4 14.2757 130.876 15.376 130.876 16.709C130.876 18.042 130.4 19.1423 129.448 20.0098C128.517 20.8773 127.279 21.311 125.735 21.311C124.169 21.311 122.921 20.8773 121.99 20.0098C121.059 19.1423 120.593 18.042 120.593 16.709ZM137.891 11.25H147.031V52.1289L146.111 60H137.891V11.25ZM168.772 42.4805V43.147C168.772 45.7072 168.497 48.0558 167.947 50.1929C167.418 52.3299 166.593 54.1813 165.471 55.7471C164.35 57.2917 162.953 58.4977 161.282 59.3652C159.631 60.2116 157.685 60.6348 155.442 60.6348C153.347 60.6348 151.528 60.2116 149.983 59.3652C148.459 58.5189 147.179 57.3234 146.143 55.7788C145.106 54.2342 144.27 52.4251 143.635 50.3516C143 48.278 142.524 46.014 142.207 43.5596V42.0996C142.524 39.6452 143 37.3812 143.635 35.3076C144.27 33.234 145.106 31.425 146.143 29.8804C147.179 28.3358 148.459 27.1403 149.983 26.2939C151.506 25.4476 153.305 25.0244 155.378 25.0244C157.642 25.0244 159.61 25.4582 161.282 26.3257C162.974 27.172 164.371 28.3781 165.471 29.9438C166.593 31.4884 167.418 33.3293 167.947 35.4663C168.497 37.5822 168.772 39.9202 168.772 42.4805ZM159.631 43.147V42.4805C159.631 41.084 159.526 39.7721 159.314 38.5449C159.124 37.2965 158.785 36.2069 158.298 35.2759C157.812 34.3237 157.145 33.5726 156.299 33.0225C155.474 32.4723 154.405 32.1973 153.093 32.1973C151.845 32.1973 150.787 32.4089 149.919 32.832C149.052 33.2552 148.333 33.8477 147.761 34.6094C147.211 35.3711 146.799 36.2809 146.523 37.3389C146.248 38.3757 146.079 39.5182 146.016 40.7666V44.9243C146.079 46.5959 146.354 48.077 146.841 49.3677C147.349 50.6372 148.11 51.6423 149.126 52.3828C150.163 53.1022 151.506 53.4619 153.157 53.4619C154.447 53.4619 155.516 53.208 156.362 52.7002C157.209 52.1924 157.865 51.473 158.33 50.542C158.817 49.611 159.155 48.5213 159.346 47.2729C159.536 46.0034 159.631 44.6281 159.631 43.147ZM184.102 25.6592V60H174.929V25.6592H184.102ZM174.358 16.709C174.358 15.376 174.823 14.2757 175.754 13.4082C176.685 12.5407 177.934 12.1069 179.5 12.1069C181.044 12.1069 182.282 12.5407 183.213 13.4082C184.165 14.2757 184.641 15.376 184.641 16.709C184.641 18.042 184.165 19.1423 183.213 20.0098C182.282 20.8773 181.044 21.311 179.5 21.311C177.934 21.311 176.685 20.8773 175.754 20.0098C174.823 19.1423 174.358 18.042 174.358 16.709ZM203.303 60H194.099V22.6123C194.099 20.0098 194.607 17.8198 195.623 16.0425C196.659 14.244 198.109 12.8898 199.971 11.98C201.854 11.049 204.086 10.5835 206.667 10.5835C207.514 10.5835 208.328 10.647 209.111 10.7739C209.894 10.8797 210.656 11.0173 211.396 11.1865L211.301 18.0737C210.899 17.9679 210.476 17.8939 210.032 17.8516C209.587 17.8092 209.069 17.7881 208.477 17.7881C207.376 17.7881 206.435 17.9785 205.652 18.3594C204.89 18.7191 204.308 19.2586 203.906 19.978C203.504 20.6974 203.303 21.5755 203.303 22.6123V60ZM210.159 25.6592V32.1338H188.989V25.6592H210.159ZM225.139 56.1279L234.248 25.6592H244.055L230.249 65.1733C229.953 66.0409 229.551 66.9718 229.043 67.9663C228.556 68.9608 227.89 69.9023 227.043 70.791C226.218 71.7008 225.171 72.4414 223.901 73.0127C222.653 73.584 221.119 73.8696 219.299 73.8696C218.432 73.8696 217.723 73.8167 217.173 73.7109C216.623 73.6051 215.967 73.457 215.205 73.2666V66.5698C215.438 66.5698 215.681 66.5698 215.935 66.5698C216.189 66.591 216.432 66.6016 216.665 66.6016C217.871 66.6016 218.855 66.464 219.617 66.189C220.378 65.9139 220.992 65.4907 221.458 64.9194C221.923 64.3693 222.293 63.6499 222.568 62.7612L225.139 56.1279ZM221.331 25.6592L228.789 50.542L230.09 60.2222L223.87 60.8887L211.523 25.6592H221.331Z" fill="#090B0E"/>
<path d="M248.149 55.5884C248.149 54.2342 248.615 53.1022 249.546 52.1924C250.498 51.2826 251.757 50.8276 253.323 50.8276C254.889 50.8276 256.137 51.2826 257.068 52.1924C258.02 53.1022 258.496 54.2342 258.496 55.5884C258.496 56.9425 258.02 58.0745 257.068 58.9844C256.137 59.8942 254.889 60.3491 253.323 60.3491C251.757 60.3491 250.498 59.8942 249.546 58.9844C248.615 58.0745 248.149 56.9425 248.149 55.5884ZM276.206 11.25V60H267.034V11.25H276.206ZM293.408 25.6592V60H284.236V25.6592H293.408ZM283.665 16.709C283.665 15.376 284.13 14.2757 285.061 13.4082C285.992 12.5407 287.24 12.1069 288.806 12.1069C290.351 12.1069 291.589 12.5407 292.52 13.4082C293.472 14.2757 293.948 15.376 293.948 16.709C293.948 18.042 293.472 19.1423 292.52 20.0098C291.589 20.8773 290.351 21.311 288.806 21.311C287.24 21.311 285.992 20.8773 285.061 20.0098C284.13 19.1423 283.665 18.042 283.665 16.709ZM309.912 32.9907V60H300.771V25.6592H309.341L309.912 32.9907ZM308.579 41.6235H306.104C306.104 39.0845 306.431 36.7993 307.087 34.7681C307.743 32.7157 308.664 30.9701 309.849 29.5312C311.034 28.0713 312.441 26.9604 314.07 26.1987C315.72 25.4159 317.561 25.0244 319.592 25.0244C321.2 25.0244 322.671 25.2572 324.004 25.7227C325.337 26.1882 326.479 26.9287 327.432 27.9443C328.405 28.96 329.146 30.3035 329.653 31.9751C330.182 33.6466 330.447 35.6885 330.447 38.1006V60H321.243V38.0688C321.243 36.5454 321.031 35.3605 320.608 34.5142C320.185 33.6678 319.561 33.0754 318.735 32.7368C317.931 32.3771 316.937 32.1973 315.752 32.1973C314.525 32.1973 313.456 32.4406 312.546 32.9272C311.658 33.4139 310.917 34.091 310.325 34.9585C309.753 35.8049 309.32 36.7993 309.023 37.9419C308.727 39.0845 308.579 40.3117 308.579 41.6235ZM346.538 11.2183V60H337.397V11.2183H346.538ZM368.184 25.6592L353.267 42.6709L345.269 50.7642L341.936 44.1626L348.284 36.1011L357.202 25.6592H368.184ZM358.694 60L348.538 44.1309L354.854 38.6084L369.231 60H358.694Z" fill="#0F9D58"/>
</g>
<defs>
<clipPath id="clip0_813_2">
<rect width="402" height="76" fill="white"/>
</clipPath>
</defs>
</svg>
