<svg width="231" height="76" viewBox="0 0 231 76" fill="white" xmlns="http://www.w3.org/2000/svg">
<g clip-path="url(#clip0_819_39)">
<path d="M82.2954 21.6592H90.5791V54.8574C90.5791 57.9889 89.8809 60.6444 88.4844 62.8237C87.109 65.0243 85.1836 66.6852 82.708 67.8066C80.2324 68.9492 77.3548 69.5205 74.0752 69.5205C72.6364 69.5205 71.113 69.3301 69.5049 68.9492C67.918 68.5684 66.3945 67.9759 64.9346 67.1719C63.4958 66.3678 62.2897 65.3522 61.3164 64.125L65.3472 58.7295C66.4051 59.9567 67.6323 60.9089 69.0288 61.5859C70.4253 62.2842 71.9699 62.6333 73.6626 62.6333C75.313 62.6333 76.7095 62.3265 77.8521 61.7129C78.9946 61.1204 79.8727 60.2424 80.4863 59.0786C81.0999 57.936 81.4067 56.5501 81.4067 54.9209V29.5938L82.2954 21.6592ZM59.1899 39.2422V38.5757C59.1899 35.952 59.5073 33.5716 60.1421 31.4346C60.798 29.2764 61.7184 27.425 62.9033 25.8804C64.1094 24.3358 65.5693 23.1403 67.2832 22.2939C68.9971 21.4476 70.9331 21.0244 73.0913 21.0244C75.3765 21.0244 77.2913 21.4476 78.8359 22.2939C80.3805 23.1403 81.6501 24.3464 82.6445 25.9121C83.639 27.4567 84.4113 29.2869 84.9614 31.4028C85.5327 33.4976 85.9771 35.7933 86.2944 38.29V39.75C85.9771 42.141 85.501 44.3626 84.8662 46.415C84.2314 48.4674 83.3957 50.266 82.3589 51.8105C81.3221 53.334 80.0314 54.5189 78.4868 55.3652C76.9634 56.2116 75.1437 56.6348 73.0278 56.6348C70.9119 56.6348 68.9971 56.201 67.2832 55.3335C65.5905 54.466 64.1411 53.2493 62.9351 51.6836C61.729 50.1178 60.798 48.277 60.1421 46.1611C59.5073 44.0452 59.1899 41.7389 59.1899 39.2422ZM68.3306 38.5757V39.2422C68.3306 40.6598 68.4681 41.9823 68.7432 43.2095C69.0182 44.4367 69.4414 45.5264 70.0127 46.4785C70.6051 47.4095 71.3351 48.1395 72.2026 48.6685C73.0913 49.1763 74.1387 49.4302 75.3447 49.4302C77.0163 49.4302 78.381 49.0811 79.439 48.3828C80.4969 47.6634 81.2904 46.6795 81.8193 45.4312C82.3483 44.1828 82.6551 42.744 82.7397 41.1147V36.957C82.6974 35.624 82.5176 34.4285 82.2002 33.3706C81.8828 32.2915 81.4385 31.3711 80.8672 30.6094C80.2959 29.8477 79.5553 29.2552 78.6455 28.832C77.7357 28.4089 76.6566 28.1973 75.4082 28.1973C74.2021 28.1973 73.1548 28.4723 72.2661 29.0225C71.3986 29.5514 70.6686 30.2814 70.0762 31.2124C69.5049 32.1434 69.0711 33.2437 68.7749 34.5132C68.4787 35.7616 68.3306 37.1157 68.3306 38.5757ZM107.337 21.6592V56H98.1646V21.6592H107.337ZM97.5933 12.709C97.5933 11.376 98.0588 10.2757 98.9897 9.4082C99.9207 8.54069 101.169 8.10693 102.735 8.10693C104.279 8.10693 105.517 8.54069 106.448 9.4082C107.4 10.2757 107.876 11.376 107.876 12.709C107.876 14.042 107.4 15.1423 106.448 16.0098C105.517 16.8773 104.279 17.311 102.735 17.311C101.169 17.311 99.9207 16.8773 98.9897 16.0098C98.0588 15.1423 97.5933 14.042 97.5933 12.709ZM114.891 7.25H124.031V48.1289L123.111 56H114.891V7.25ZM145.772 38.4805V39.147C145.772 41.7072 145.497 44.0558 144.947 46.1929C144.418 48.3299 143.593 50.1813 142.471 51.7471C141.35 53.2917 139.953 54.4977 138.282 55.3652C136.631 56.2116 134.685 56.6348 132.442 56.6348C130.347 56.6348 128.528 56.2116 126.983 55.3652C125.459 54.5189 124.179 53.3234 123.143 51.7788C122.106 50.2342 121.27 48.4251 120.635 46.3516C120 44.278 119.524 42.014 119.207 39.5596V38.0996C119.524 35.6452 120 33.3812 120.635 31.3076C121.27 29.234 122.106 27.425 123.143 25.8804C124.179 24.3358 125.459 23.1403 126.983 22.2939C128.506 21.4476 130.305 21.0244 132.378 21.0244C134.642 21.0244 136.61 21.4582 138.282 22.3257C139.974 23.172 141.371 24.3781 142.471 25.9438C143.593 27.4884 144.418 29.3293 144.947 31.4663C145.497 33.5822 145.772 35.9202 145.772 38.4805ZM136.631 39.147V38.4805C136.631 37.084 136.526 35.7721 136.314 34.5449C136.124 33.2965 135.785 32.2069 135.298 31.2759C134.812 30.3237 134.145 29.5726 133.299 29.0225C132.474 28.4723 131.405 28.1973 130.093 28.1973C128.845 28.1973 127.787 28.4089 126.919 28.832C126.052 29.2552 125.333 29.8477 124.761 30.6094C124.211 31.3711 123.799 32.2809 123.523 33.3389C123.248 34.3757 123.079 35.5182 123.016 36.7666V40.9243C123.079 42.5959 123.354 44.077 123.841 45.3677C124.349 46.6372 125.11 47.6423 126.126 48.3828C127.163 49.1022 128.506 49.4619 130.157 49.4619C131.447 49.4619 132.516 49.208 133.362 48.7002C134.209 48.1924 134.865 47.473 135.33 46.542C135.817 45.611 136.155 44.5213 136.346 43.2729C136.536 42.0034 136.631 40.6281 136.631 39.147ZM161.102 21.6592V56H151.929V21.6592H161.102ZM151.358 12.709C151.358 11.376 151.823 10.2757 152.754 9.4082C153.685 8.54069 154.934 8.10693 156.5 8.10693C158.044 8.10693 159.282 8.54069 160.213 9.4082C161.165 10.2757 161.641 11.376 161.641 12.709C161.641 14.042 161.165 15.1423 160.213 16.0098C159.282 16.8773 158.044 17.311 156.5 17.311C154.934 17.311 153.685 16.8773 152.754 16.0098C151.823 15.1423 151.358 14.042 151.358 12.709ZM180.303 56H171.099V18.6123C171.099 16.0098 171.607 13.8198 172.623 12.0425C173.659 10.244 175.109 8.88981 176.971 7.97998C178.854 7.04899 181.086 6.5835 183.667 6.5835C184.514 6.5835 185.328 6.64697 186.111 6.77393C186.894 6.87972 187.656 7.01725 188.396 7.18652L188.301 14.0737C187.899 13.9679 187.476 13.8939 187.032 13.8516C186.587 13.8092 186.069 13.7881 185.477 13.7881C184.376 13.7881 183.435 13.9785 182.652 14.3594C181.89 14.7191 181.308 15.2586 180.906 15.978C180.504 16.6974 180.303 17.5755 180.303 18.6123V56ZM187.159 21.6592V28.1338H165.989V21.6592H187.159ZM202.139 52.1279L211.248 21.6592H221.055L207.249 61.1733C206.953 62.0409 206.551 62.9718 206.043 63.9663C205.556 64.9608 204.89 65.9023 204.043 66.791C203.218 67.7008 202.171 68.4414 200.901 69.0127C199.653 69.584 198.119 69.8696 196.299 69.8696C195.432 69.8696 194.723 69.8167 194.173 69.7109C193.623 69.6051 192.967 69.457 192.205 69.2666V62.5698C192.438 62.5698 192.681 62.5698 192.935 62.5698C193.189 62.591 193.432 62.6016 193.665 62.6016C194.871 62.6016 195.855 62.464 196.617 62.189C197.378 61.9139 197.992 61.4907 198.458 60.9194C198.923 60.3693 199.293 59.6499 199.568 58.7612L202.139 52.1279ZM198.331 21.6592L205.789 46.542L207.09 56.2222L200.87 56.8887L188.523 21.6592H198.331Z" fill="white"/>
<path d="M30.2819 35.1145L48.1613 49.3106C49.3971 50.2918 49.401 51.8933 48.1701 52.8825L45.2108 55.2861C43.9799 56.2858 41.9856 56.3008 40.7629 55.3195L28.0896 45.2569L15.4666 55.5093C14.2357 56.509 12.2414 56.524 11.0187 55.5427L8.02135 53.1944C6.78556 52.2132 6.78159 50.6116 8.01249 49.6224L25.8209 35.1585C27.0518 34.1482 29.0461 34.1333 30.2819 35.1145ZM25.7707 14.9173L7.96233 29.3813C6.73146 30.381 6.73543 31.9826 7.97119 32.9532L10.9423 35.3123C12.1781 36.2935 14.1724 36.2785 15.3902 35.2789L28.0132 25.0265L40.6866 35.089C41.9224 36.0703 43.9167 36.0553 45.1344 35.0557L48.0938 32.6521C49.3246 31.6524 49.3207 30.0508 48.0849 29.0801L30.2055 14.884C28.9959 13.9026 27.0016 13.9176 25.7707 14.9173Z" fill="white"/>
</g>
<defs>
<clipPath id="clip0_819_39">
<rect width="231" height="76" fill="white"/>
</clipPath>
</defs>
</svg>
